<mxfile host="app.diagrams.net" modified="2024-02-17T15:12:45.517Z" agent="Mozilla/5.0 (Windows NT 10.0; Win64; x64) AppleWebKit/537.36 (KHTML, like Gecko) Chrome/121.0.0.0 Safari/537.36 Edg/121.0.0.0" etag="Ty5bppOybgB0Cdbn327H" version="23.1.5" type="github">
  <diagram id="C5RBs43oDa-KdzZeNtuy" name="Page-1">
    <mxGraphModel dx="1429" dy="2435" grid="1" gridSize="22" guides="1" tooltips="1" connect="1" arrows="1" fold="1" page="1" pageScale="1" pageWidth="1200" pageHeight="1600" math="0" shadow="0">
      <root>
        <mxCell id="WIyWlLk6GJQsqaUBKTNV-0" />
        <mxCell id="WIyWlLk6GJQsqaUBKTNV-1" parent="WIyWlLk6GJQsqaUBKTNV-0" />
        <mxCell id="b2RJDhuck7k-rT2xG-7A-0" value="vehicule" style="swimlane;fontStyle=0;childLayout=stackLayout;horizontal=1;startSize=30;horizontalStack=0;resizeParent=1;resizeParentMax=0;resizeLast=0;collapsible=1;marginBottom=0;whiteSpace=wrap;html=1;rounded=1;labelBackgroundColor=none;fillColor=#5D7F99;strokeColor=#D0CEE2;fontColor=#1A1A1A;" parent="WIyWlLk6GJQsqaUBKTNV-1" vertex="1">
          <mxGeometry x="239" y="-1312" width="140" height="242" as="geometry" />
        </mxCell>
        <mxCell id="b2RJDhuck7k-rT2xG-7A-1" value="idvehicule" style="text;strokeColor=none;fillColor=none;align=left;verticalAlign=middle;spacingLeft=4;spacingRight=4;overflow=hidden;points=[[0,0.5],[1,0.5]];portConstraint=eastwest;rotatable=0;whiteSpace=wrap;html=1;rounded=1;labelBackgroundColor=none;fontColor=#1A1A1A;" parent="b2RJDhuck7k-rT2xG-7A-0" vertex="1">
          <mxGeometry y="30" width="140" height="30" as="geometry" />
        </mxCell>
        <mxCell id="b2RJDhuck7k-rT2xG-7A-2" value="vin" style="text;strokeColor=none;fillColor=none;align=left;verticalAlign=middle;spacingLeft=4;spacingRight=4;overflow=hidden;points=[[0,0.5],[1,0.5]];portConstraint=eastwest;rotatable=0;whiteSpace=wrap;html=1;rounded=1;labelBackgroundColor=none;fontColor=#1A1A1A;" parent="b2RJDhuck7k-rT2xG-7A-0" vertex="1">
          <mxGeometry y="60" width="140" height="30" as="geometry" />
        </mxCell>
        <mxCell id="b2RJDhuck7k-rT2xG-7A-3" value="numberPlate" style="text;strokeColor=none;fillColor=none;align=left;verticalAlign=middle;spacingLeft=4;spacingRight=4;overflow=hidden;points=[[0,0.5],[1,0.5]];portConstraint=eastwest;rotatable=0;whiteSpace=wrap;html=1;rounded=1;labelBackgroundColor=none;fontColor=#1A1A1A;" parent="b2RJDhuck7k-rT2xG-7A-0" vertex="1">
          <mxGeometry y="90" width="140" height="30" as="geometry" />
        </mxCell>
        <mxCell id="b2RJDhuck7k-rT2xG-7A-18" value="make" style="text;strokeColor=none;fillColor=none;align=left;verticalAlign=middle;spacingLeft=4;spacingRight=4;overflow=hidden;points=[[0,0.5],[1,0.5]];portConstraint=eastwest;rotatable=0;whiteSpace=wrap;html=1;rounded=1;labelBackgroundColor=none;fontColor=#1A1A1A;" parent="b2RJDhuck7k-rT2xG-7A-0" vertex="1">
          <mxGeometry y="120" width="140" height="30" as="geometry" />
        </mxCell>
        <mxCell id="b2RJDhuck7k-rT2xG-7A-17" value="model" style="text;strokeColor=none;fillColor=none;align=left;verticalAlign=middle;spacingLeft=4;spacingRight=4;overflow=hidden;points=[[0,0.5],[1,0.5]];portConstraint=eastwest;rotatable=0;whiteSpace=wrap;html=1;rounded=1;labelBackgroundColor=none;fontColor=#1A1A1A;" parent="b2RJDhuck7k-rT2xG-7A-0" vertex="1">
          <mxGeometry y="150" width="140" height="30" as="geometry" />
        </mxCell>
        <mxCell id="b2RJDhuck7k-rT2xG-7A-16" value="color" style="text;strokeColor=none;fillColor=none;align=left;verticalAlign=middle;spacingLeft=4;spacingRight=4;overflow=hidden;points=[[0,0.5],[1,0.5]];portConstraint=eastwest;rotatable=0;whiteSpace=wrap;html=1;rounded=1;labelBackgroundColor=none;fontColor=#1A1A1A;" parent="b2RJDhuck7k-rT2xG-7A-0" vertex="1">
          <mxGeometry y="180" width="140" height="30" as="geometry" />
        </mxCell>
        <mxCell id="b2RJDhuck7k-rT2xG-7A-20" value="year" style="text;strokeColor=none;fillColor=none;align=left;verticalAlign=middle;spacingLeft=4;spacingRight=4;overflow=hidden;points=[[0,0.5],[1,0.5]];portConstraint=eastwest;rotatable=0;whiteSpace=wrap;html=1;rounded=1;labelBackgroundColor=none;fontColor=#1A1A1A;" parent="b2RJDhuck7k-rT2xG-7A-0" vertex="1">
          <mxGeometry y="210" width="140" height="32" as="geometry" />
        </mxCell>
        <mxCell id="b2RJDhuck7k-rT2xG-7A-4" value="tax paid" style="swimlane;fontStyle=0;childLayout=stackLayout;horizontal=1;startSize=30;horizontalStack=0;resizeParent=1;resizeParentMax=0;resizeLast=0;collapsible=1;marginBottom=0;whiteSpace=wrap;html=1;rounded=1;labelBackgroundColor=none;fillColor=#5D7F99;strokeColor=#D0CEE2;fontColor=#1A1A1A;" parent="WIyWlLk6GJQsqaUBKTNV-1" vertex="1">
          <mxGeometry x="679" y="-1342" width="140" height="120" as="geometry" />
        </mxCell>
        <mxCell id="b2RJDhuck7k-rT2xG-7A-5" value="idTaxPaid" style="text;strokeColor=none;fillColor=none;align=left;verticalAlign=middle;spacingLeft=4;spacingRight=4;overflow=hidden;points=[[0,0.5],[1,0.5]];portConstraint=eastwest;rotatable=0;whiteSpace=wrap;html=1;rounded=1;labelBackgroundColor=none;fontColor=#1A1A1A;" parent="b2RJDhuck7k-rT2xG-7A-4" vertex="1">
          <mxGeometry y="30" width="140" height="30" as="geometry" />
        </mxCell>
        <mxCell id="b2RJDhuck7k-rT2xG-7A-6" value="taxAmountPaid" style="text;strokeColor=none;fillColor=none;align=left;verticalAlign=middle;spacingLeft=4;spacingRight=4;overflow=hidden;points=[[0,0.5],[1,0.5]];portConstraint=eastwest;rotatable=0;whiteSpace=wrap;html=1;rounded=1;labelBackgroundColor=none;fontColor=#1A1A1A;" parent="b2RJDhuck7k-rT2xG-7A-4" vertex="1">
          <mxGeometry y="60" width="140" height="30" as="geometry" />
        </mxCell>
        <mxCell id="b2RJDhuck7k-rT2xG-7A-7" value="DateOfPaiment" style="text;strokeColor=none;fillColor=none;align=left;verticalAlign=middle;spacingLeft=4;spacingRight=4;overflow=hidden;points=[[0,0.5],[1,0.5]];portConstraint=eastwest;rotatable=0;whiteSpace=wrap;html=1;rounded=1;labelBackgroundColor=none;fontColor=#1A1A1A;" parent="b2RJDhuck7k-rT2xG-7A-4" vertex="1">
          <mxGeometry y="90" width="140" height="30" as="geometry" />
        </mxCell>
        <mxCell id="b2RJDhuck7k-rT2xG-7A-8" value="owner" style="swimlane;fontStyle=0;childLayout=stackLayout;horizontal=1;startSize=30;horizontalStack=0;resizeParent=1;resizeParentMax=0;resizeLast=0;collapsible=1;marginBottom=0;whiteSpace=wrap;html=1;rounded=1;labelBackgroundColor=none;fillColor=#5D7F99;strokeColor=#D0CEE2;fontColor=#1A1A1A;" parent="WIyWlLk6GJQsqaUBKTNV-1" vertex="1">
          <mxGeometry x="789" y="-1118" width="140" height="120" as="geometry" />
        </mxCell>
        <mxCell id="b2RJDhuck7k-rT2xG-7A-9" value="idOwner" style="text;strokeColor=none;fillColor=none;align=left;verticalAlign=middle;spacingLeft=4;spacingRight=4;overflow=hidden;points=[[0,0.5],[1,0.5]];portConstraint=eastwest;rotatable=0;whiteSpace=wrap;html=1;rounded=1;labelBackgroundColor=none;fontColor=#1A1A1A;" parent="b2RJDhuck7k-rT2xG-7A-8" vertex="1">
          <mxGeometry y="30" width="140" height="30" as="geometry" />
        </mxCell>
        <mxCell id="b2RJDhuck7k-rT2xG-7A-10" value="name" style="text;strokeColor=none;fillColor=none;align=left;verticalAlign=middle;spacingLeft=4;spacingRight=4;overflow=hidden;points=[[0,0.5],[1,0.5]];portConstraint=eastwest;rotatable=0;whiteSpace=wrap;html=1;rounded=1;labelBackgroundColor=none;fontColor=#1A1A1A;" parent="b2RJDhuck7k-rT2xG-7A-8" vertex="1">
          <mxGeometry y="60" width="140" height="30" as="geometry" />
        </mxCell>
        <mxCell id="b2RJDhuck7k-rT2xG-7A-11" value="surname" style="text;strokeColor=none;fillColor=none;align=left;verticalAlign=middle;spacingLeft=4;spacingRight=4;overflow=hidden;points=[[0,0.5],[1,0.5]];portConstraint=eastwest;rotatable=0;whiteSpace=wrap;html=1;rounded=1;labelBackgroundColor=none;fontColor=#1A1A1A;" parent="b2RJDhuck7k-rT2xG-7A-8" vertex="1">
          <mxGeometry y="90" width="140" height="30" as="geometry" />
        </mxCell>
        <mxCell id="b2RJDhuck7k-rT2xG-7A-12" value="vehiculeType" style="swimlane;fontStyle=0;childLayout=stackLayout;horizontal=1;startSize=30;horizontalStack=0;resizeParent=1;resizeParentMax=0;resizeLast=0;collapsible=1;marginBottom=0;whiteSpace=wrap;html=1;rounded=1;labelBackgroundColor=none;fillColor=#5D7F99;strokeColor=#D0CEE2;fontColor=#1A1A1A;" parent="WIyWlLk6GJQsqaUBKTNV-1" vertex="1">
          <mxGeometry x="789" y="-968" width="140" height="120" as="geometry" />
        </mxCell>
        <mxCell id="b2RJDhuck7k-rT2xG-7A-13" value="idVehiculeType" style="text;strokeColor=none;fillColor=none;align=left;verticalAlign=middle;spacingLeft=4;spacingRight=4;overflow=hidden;points=[[0,0.5],[1,0.5]];portConstraint=eastwest;rotatable=0;whiteSpace=wrap;html=1;rounded=1;labelBackgroundColor=none;fontColor=#1A1A1A;" parent="b2RJDhuck7k-rT2xG-7A-12" vertex="1">
          <mxGeometry y="30" width="140" height="30" as="geometry" />
        </mxCell>
        <mxCell id="b2RJDhuck7k-rT2xG-7A-14" value="typeOfVehicule" style="text;strokeColor=none;fillColor=none;align=left;verticalAlign=middle;spacingLeft=4;spacingRight=4;overflow=hidden;points=[[0,0.5],[1,0.5]];portConstraint=eastwest;rotatable=0;whiteSpace=wrap;html=1;rounded=1;labelBackgroundColor=none;fontColor=#1A1A1A;" parent="b2RJDhuck7k-rT2xG-7A-12" vertex="1">
          <mxGeometry y="60" width="140" height="30" as="geometry" />
        </mxCell>
        <mxCell id="b2RJDhuck7k-rT2xG-7A-15" value="taxAmount" style="text;strokeColor=none;fillColor=none;align=left;verticalAlign=middle;spacingLeft=4;spacingRight=4;overflow=hidden;points=[[0,0.5],[1,0.5]];portConstraint=eastwest;rotatable=0;whiteSpace=wrap;html=1;rounded=1;labelBackgroundColor=none;fontColor=#1A1A1A;" parent="b2RJDhuck7k-rT2xG-7A-12" vertex="1">
          <mxGeometry y="90" width="140" height="30" as="geometry" />
        </mxCell>
        <mxCell id="b2RJDhuck7k-rT2xG-7A-25" style="edgeStyle=orthogonalEdgeStyle;rounded=1;orthogonalLoop=1;jettySize=auto;html=1;endArrow=none;endFill=0;exitX=1;exitY=0.5;exitDx=0;exitDy=0;labelBackgroundColor=none;strokeColor=#736CA8;fontColor=default;" parent="WIyWlLk6GJQsqaUBKTNV-1" edge="1">
          <mxGeometry relative="1" as="geometry">
            <mxPoint x="645" y="-1058" as="sourcePoint" />
            <mxPoint x="789" y="-1056" as="targetPoint" />
            <Array as="points">
              <mxPoint x="789" y="-1058" />
            </Array>
          </mxGeometry>
        </mxCell>
        <mxCell id="b2RJDhuck7k-rT2xG-7A-27" style="edgeStyle=orthogonalEdgeStyle;rounded=1;orthogonalLoop=1;jettySize=auto;html=1;entryX=1;entryY=0.5;entryDx=0;entryDy=0;endArrow=none;endFill=0;labelBackgroundColor=none;strokeColor=#736CA8;fontColor=default;" parent="WIyWlLk6GJQsqaUBKTNV-1" source="b2RJDhuck7k-rT2xG-7A-51" target="b2RJDhuck7k-rT2xG-7A-1" edge="1">
          <mxGeometry relative="1" as="geometry">
            <mxPoint x="569" y="-1267" as="sourcePoint" />
            <Array as="points" />
          </mxGeometry>
        </mxCell>
        <mxCell id="b2RJDhuck7k-rT2xG-7A-29" value="0,1" style="text;html=1;align=center;verticalAlign=middle;resizable=0;points=[];autosize=1;strokeColor=none;fillColor=none;rounded=1;labelBackgroundColor=none;fontColor=#1A1A1A;" parent="WIyWlLk6GJQsqaUBKTNV-1" vertex="1">
          <mxGeometry x="627" y="-1299" width="44" height="44" as="geometry" />
        </mxCell>
        <mxCell id="b2RJDhuck7k-rT2xG-7A-31" value="1,*" style="text;html=1;align=center;verticalAlign=middle;resizable=0;points=[];autosize=1;strokeColor=none;fillColor=none;strokeWidth=6;rounded=1;labelBackgroundColor=none;fontColor=#1A1A1A;" parent="WIyWlLk6GJQsqaUBKTNV-1" vertex="1">
          <mxGeometry x="747" y="-1092" width="44" height="44" as="geometry" />
        </mxCell>
        <mxCell id="b2RJDhuck7k-rT2xG-7A-37" value="0,1" style="text;html=1;align=center;verticalAlign=middle;resizable=0;points=[];autosize=1;strokeColor=none;fillColor=none;rounded=1;labelBackgroundColor=none;fontColor=#1A1A1A;" parent="WIyWlLk6GJQsqaUBKTNV-1" vertex="1">
          <mxGeometry x="379" y="-1299" width="44" height="44" as="geometry" />
        </mxCell>
        <mxCell id="b2RJDhuck7k-rT2xG-7A-40" value="&lt;font style=&quot;font-size: 21px;&quot;&gt;MCD&lt;/font&gt;" style="text;html=1;align=center;verticalAlign=middle;whiteSpace=wrap;rounded=1;fillColor=#5D7F99;strokeColor=#D0CEE2;perimeterSpacing=1;imageWidth=27;imageHeight=24;arcSize=15;labelBackgroundColor=none;fontColor=#1A1A1A;" parent="WIyWlLk6GJQsqaUBKTNV-1" vertex="1">
          <mxGeometry x="477" y="-1196" width="192" height="74" as="geometry" />
        </mxCell>
        <mxCell id="b2RJDhuck7k-rT2xG-7A-48" value="" style="edgeStyle=orthogonalEdgeStyle;rounded=1;orthogonalLoop=1;jettySize=auto;html=1;entryX=0;entryY=0.5;entryDx=0;entryDy=0;endArrow=none;endFill=0;exitX=-0.046;exitY=0.386;exitDx=0;exitDy=0;exitPerimeter=0;labelBackgroundColor=none;strokeColor=#736CA8;fontColor=default;" parent="WIyWlLk6GJQsqaUBKTNV-1" target="b2RJDhuck7k-rT2xG-7A-47" edge="1">
          <mxGeometry relative="1" as="geometry">
            <mxPoint x="378.9759999999999" y="-1082.016" as="sourcePoint" />
            <mxPoint x="789" y="-1057" as="targetPoint" />
          </mxGeometry>
        </mxCell>
        <mxCell id="b2RJDhuck7k-rT2xG-7A-47" value="" style="ellipse;whiteSpace=wrap;html=1;rounded=1;labelBackgroundColor=none;fillColor=#5D7F99;strokeColor=#D0CEE2;fontColor=#1A1A1A;" parent="WIyWlLk6GJQsqaUBKTNV-1" vertex="1">
          <mxGeometry x="525" y="-1098" width="120" height="80" as="geometry" />
        </mxCell>
        <mxCell id="b2RJDhuck7k-rT2xG-7A-49" value="" style="endArrow=none;html=1;rounded=1;entryX=1;entryY=0.5;entryDx=0;entryDy=0;exitX=0;exitY=0.5;exitDx=0;exitDy=0;labelBackgroundColor=none;strokeColor=#736CA8;fontColor=default;" parent="WIyWlLk6GJQsqaUBKTNV-1" source="b2RJDhuck7k-rT2xG-7A-47" target="b2RJDhuck7k-rT2xG-7A-47" edge="1">
          <mxGeometry width="50" height="50" relative="1" as="geometry">
            <mxPoint x="525" y="-1138" as="sourcePoint" />
            <mxPoint x="575" y="-1188" as="targetPoint" />
          </mxGeometry>
        </mxCell>
        <mxCell id="b2RJDhuck7k-rT2xG-7A-50" value="POSSEDE" style="text;html=1;align=center;verticalAlign=middle;whiteSpace=wrap;rounded=1;labelBackgroundColor=none;fontColor=#1A1A1A;" parent="WIyWlLk6GJQsqaUBKTNV-1" vertex="1">
          <mxGeometry x="555" y="-1092" width="60" height="30" as="geometry" />
        </mxCell>
        <mxCell id="b2RJDhuck7k-rT2xG-7A-52" value="" style="edgeStyle=orthogonalEdgeStyle;rounded=1;orthogonalLoop=1;jettySize=auto;html=1;entryX=1;entryY=0.5;entryDx=0;entryDy=0;endArrow=none;endFill=0;labelBackgroundColor=none;strokeColor=#736CA8;fontColor=default;" parent="WIyWlLk6GJQsqaUBKTNV-1" target="b2RJDhuck7k-rT2xG-7A-51" edge="1">
          <mxGeometry relative="1" as="geometry">
            <mxPoint x="667" y="-1267" as="sourcePoint" />
            <mxPoint x="379" y="-1267" as="targetPoint" />
            <Array as="points">
              <mxPoint x="679" y="-1267" />
              <mxPoint x="679" y="-1267" />
            </Array>
          </mxGeometry>
        </mxCell>
        <mxCell id="b2RJDhuck7k-rT2xG-7A-51" value="" style="ellipse;whiteSpace=wrap;html=1;rounded=1;labelBackgroundColor=none;fillColor=#5D7F99;strokeColor=#D0CEE2;fontColor=#1A1A1A;" parent="WIyWlLk6GJQsqaUBKTNV-1" vertex="1">
          <mxGeometry x="457" y="-1307" width="120" height="80" as="geometry" />
        </mxCell>
        <mxCell id="b2RJDhuck7k-rT2xG-7A-53" value="" style="endArrow=none;html=1;rounded=1;labelBackgroundColor=none;strokeColor=#736CA8;fontColor=default;" parent="WIyWlLk6GJQsqaUBKTNV-1" source="b2RJDhuck7k-rT2xG-7A-51" edge="1">
          <mxGeometry width="50" height="50" relative="1" as="geometry">
            <mxPoint x="525" y="-1226" as="sourcePoint" />
            <mxPoint x="575" y="-1276" as="targetPoint" />
          </mxGeometry>
        </mxCell>
        <mxCell id="b2RJDhuck7k-rT2xG-7A-55" value="" style="endArrow=none;html=1;rounded=1;entryX=1;entryY=0.5;entryDx=0;entryDy=0;exitX=0;exitY=0.5;exitDx=0;exitDy=0;labelBackgroundColor=none;strokeColor=#736CA8;fontColor=default;" parent="WIyWlLk6GJQsqaUBKTNV-1" source="b2RJDhuck7k-rT2xG-7A-51" target="b2RJDhuck7k-rT2xG-7A-51" edge="1">
          <mxGeometry width="50" height="50" relative="1" as="geometry">
            <mxPoint x="457" y="-1262" as="sourcePoint" />
            <mxPoint x="507" y="-1312" as="targetPoint" />
          </mxGeometry>
        </mxCell>
        <mxCell id="b2RJDhuck7k-rT2xG-7A-56" value="PAYER" style="text;html=1;align=center;verticalAlign=middle;whiteSpace=wrap;rounded=1;labelBackgroundColor=none;fontColor=#1A1A1A;" parent="WIyWlLk6GJQsqaUBKTNV-1" vertex="1">
          <mxGeometry x="487" y="-1292" width="60" height="30" as="geometry" />
        </mxCell>
        <mxCell id="b2RJDhuck7k-rT2xG-7A-64" value="1,1" style="text;html=1;align=center;verticalAlign=middle;resizable=0;points=[];autosize=1;strokeColor=none;fillColor=none;strokeWidth=6;rounded=1;labelBackgroundColor=none;fontColor=#1A1A1A;" parent="WIyWlLk6GJQsqaUBKTNV-1" vertex="1">
          <mxGeometry x="727" y="-931" width="44" height="44" as="geometry" />
        </mxCell>
        <mxCell id="b2RJDhuck7k-rT2xG-7A-67" value="1,1" style="text;html=1;align=center;verticalAlign=middle;resizable=0;points=[];autosize=1;strokeColor=none;fillColor=none;strokeWidth=6;rounded=1;labelBackgroundColor=none;fontColor=#1A1A1A;" parent="WIyWlLk6GJQsqaUBKTNV-1" vertex="1">
          <mxGeometry x="387" y="-1122" width="44" height="44" as="geometry" />
        </mxCell>
        <mxCell id="b2RJDhuck7k-rT2xG-7A-69" style="edgeStyle=orthogonalEdgeStyle;rounded=1;orthogonalLoop=1;jettySize=auto;html=1;entryX=0.5;entryY=1;entryDx=0;entryDy=0;endArrow=none;endFill=0;labelBackgroundColor=none;strokeColor=#736CA8;fontColor=default;" parent="WIyWlLk6GJQsqaUBKTNV-1" source="b2RJDhuck7k-rT2xG-7A-14" target="b2RJDhuck7k-rT2xG-7A-47" edge="1">
          <mxGeometry relative="1" as="geometry" />
        </mxCell>
        <mxCell id="_83wY9tQXMiuMrTnx9jU-0" value="&lt;font style=&quot;font-size: 18px;&quot;&gt;merise&lt;/font&gt;" style="text;html=1;align=center;verticalAlign=middle;whiteSpace=wrap;rounded=1;perimeterSpacing=3;strokeWidth=3;fillColor=#f8cecc;strokeColor=#b85450;labelBackgroundColor=none;" vertex="1" parent="WIyWlLk6GJQsqaUBKTNV-1">
          <mxGeometry x="461" y="-1496" width="162" height="66" as="geometry" />
        </mxCell>
        <mxCell id="_83wY9tQXMiuMrTnx9jU-35" style="edgeStyle=orthogonalEdgeStyle;rounded=1;orthogonalLoop=1;jettySize=auto;html=1;entryX=-0.012;entryY=-0.19;entryDx=0;entryDy=0;entryPerimeter=0;endArrow=none;endFill=0;labelBackgroundColor=none;strokeColor=#736CA8;fontColor=default;" edge="1" parent="WIyWlLk6GJQsqaUBKTNV-1" source="_83wY9tQXMiuMrTnx9jU-36" target="_83wY9tQXMiuMrTnx9jU-55">
          <mxGeometry relative="1" as="geometry">
            <mxPoint x="91" y="-219" as="targetPoint" />
            <Array as="points">
              <mxPoint x="91" y="-302" />
              <mxPoint x="92" y="-224" />
            </Array>
          </mxGeometry>
        </mxCell>
        <mxCell id="_83wY9tQXMiuMrTnx9jU-36" value="vehicule" style="swimlane;fontStyle=0;childLayout=stackLayout;horizontal=1;startSize=30;horizontalStack=0;resizeParent=1;resizeParentMax=0;resizeLast=0;collapsible=1;marginBottom=0;whiteSpace=wrap;html=1;rounded=1;labelBackgroundColor=none;fillColor=#5D7F99;strokeColor=#D0CEE2;fontColor=#1A1A1A;" vertex="1" parent="WIyWlLk6GJQsqaUBKTNV-1">
          <mxGeometry x="21" y="-724" width="140" height="338" as="geometry" />
        </mxCell>
        <mxCell id="_83wY9tQXMiuMrTnx9jU-37" value="&lt;u&gt;idvehicule&lt;/u&gt;" style="text;strokeColor=none;fillColor=none;align=left;verticalAlign=middle;spacingLeft=4;spacingRight=4;overflow=hidden;points=[[0,0.5],[1,0.5]];portConstraint=eastwest;rotatable=0;whiteSpace=wrap;html=1;rounded=1;labelBackgroundColor=none;fontColor=#1A1A1A;" vertex="1" parent="_83wY9tQXMiuMrTnx9jU-36">
          <mxGeometry y="30" width="140" height="30" as="geometry" />
        </mxCell>
        <mxCell id="_83wY9tQXMiuMrTnx9jU-38" value="vin" style="text;strokeColor=none;fillColor=none;align=left;verticalAlign=middle;spacingLeft=4;spacingRight=4;overflow=hidden;points=[[0,0.5],[1,0.5]];portConstraint=eastwest;rotatable=0;whiteSpace=wrap;html=1;rounded=1;labelBackgroundColor=none;fontColor=#1A1A1A;" vertex="1" parent="_83wY9tQXMiuMrTnx9jU-36">
          <mxGeometry y="60" width="140" height="30" as="geometry" />
        </mxCell>
        <mxCell id="_83wY9tQXMiuMrTnx9jU-39" value="numberPlate" style="text;strokeColor=none;fillColor=none;align=left;verticalAlign=middle;spacingLeft=4;spacingRight=4;overflow=hidden;points=[[0,0.5],[1,0.5]];portConstraint=eastwest;rotatable=0;whiteSpace=wrap;html=1;rounded=1;labelBackgroundColor=none;fontColor=#1A1A1A;" vertex="1" parent="_83wY9tQXMiuMrTnx9jU-36">
          <mxGeometry y="90" width="140" height="30" as="geometry" />
        </mxCell>
        <mxCell id="_83wY9tQXMiuMrTnx9jU-40" value="make" style="text;strokeColor=none;fillColor=none;align=left;verticalAlign=middle;spacingLeft=4;spacingRight=4;overflow=hidden;points=[[0,0.5],[1,0.5]];portConstraint=eastwest;rotatable=0;whiteSpace=wrap;html=1;rounded=1;labelBackgroundColor=none;fontColor=#1A1A1A;" vertex="1" parent="_83wY9tQXMiuMrTnx9jU-36">
          <mxGeometry y="120" width="140" height="30" as="geometry" />
        </mxCell>
        <mxCell id="_83wY9tQXMiuMrTnx9jU-41" value="model" style="text;strokeColor=none;fillColor=none;align=left;verticalAlign=middle;spacingLeft=4;spacingRight=4;overflow=hidden;points=[[0,0.5],[1,0.5]];portConstraint=eastwest;rotatable=0;whiteSpace=wrap;html=1;rounded=1;labelBackgroundColor=none;fontColor=#1A1A1A;" vertex="1" parent="_83wY9tQXMiuMrTnx9jU-36">
          <mxGeometry y="150" width="140" height="30" as="geometry" />
        </mxCell>
        <mxCell id="_83wY9tQXMiuMrTnx9jU-42" value="color" style="text;strokeColor=none;fillColor=none;align=left;verticalAlign=middle;spacingLeft=4;spacingRight=4;overflow=hidden;points=[[0,0.5],[1,0.5]];portConstraint=eastwest;rotatable=0;whiteSpace=wrap;html=1;rounded=1;labelBackgroundColor=none;fontColor=#1A1A1A;" vertex="1" parent="_83wY9tQXMiuMrTnx9jU-36">
          <mxGeometry y="180" width="140" height="30" as="geometry" />
        </mxCell>
        <mxCell id="_83wY9tQXMiuMrTnx9jU-43" value="year" style="text;strokeColor=none;fillColor=none;align=left;verticalAlign=middle;spacingLeft=4;spacingRight=4;overflow=hidden;points=[[0,0.5],[1,0.5]];portConstraint=eastwest;rotatable=0;whiteSpace=wrap;html=1;rounded=1;labelBackgroundColor=none;fontColor=#1A1A1A;" vertex="1" parent="_83wY9tQXMiuMrTnx9jU-36">
          <mxGeometry y="210" width="140" height="32" as="geometry" />
        </mxCell>
        <mxCell id="_83wY9tQXMiuMrTnx9jU-44" value="&lt;u&gt;#idOwner&lt;/u&gt;" style="text;strokeColor=none;fillColor=none;align=left;verticalAlign=middle;spacingLeft=4;spacingRight=4;overflow=hidden;points=[[0,0.5],[1,0.5]];portConstraint=eastwest;rotatable=0;whiteSpace=wrap;html=1;rounded=1;labelBackgroundColor=none;fontColor=#1A1A1A;" vertex="1" parent="_83wY9tQXMiuMrTnx9jU-36">
          <mxGeometry y="242" width="140" height="32" as="geometry" />
        </mxCell>
        <mxCell id="_83wY9tQXMiuMrTnx9jU-45" value="&lt;u&gt;#idVehiculeType&lt;/u&gt;" style="text;strokeColor=none;fillColor=none;align=left;verticalAlign=middle;spacingLeft=4;spacingRight=4;overflow=hidden;points=[[0,0.5],[1,0.5]];portConstraint=eastwest;rotatable=0;whiteSpace=wrap;html=1;rounded=1;labelBackgroundColor=none;fontColor=#1A1A1A;" vertex="1" parent="_83wY9tQXMiuMrTnx9jU-36">
          <mxGeometry y="274" width="140" height="32" as="geometry" />
        </mxCell>
        <mxCell id="_83wY9tQXMiuMrTnx9jU-46" value="&lt;u&gt;#idTaxPaid&lt;/u&gt;" style="text;strokeColor=none;fillColor=none;align=left;verticalAlign=middle;spacingLeft=4;spacingRight=4;overflow=hidden;points=[[0,0.5],[1,0.5]];portConstraint=eastwest;rotatable=0;whiteSpace=wrap;html=1;rounded=1;labelBackgroundColor=none;fontColor=#1A1A1A;" vertex="1" parent="_83wY9tQXMiuMrTnx9jU-36">
          <mxGeometry y="306" width="140" height="32" as="geometry" />
        </mxCell>
        <mxCell id="_83wY9tQXMiuMrTnx9jU-47" style="edgeStyle=orthogonalEdgeStyle;rounded=1;orthogonalLoop=1;jettySize=auto;html=1;endArrow=none;endFill=0;labelBackgroundColor=none;strokeColor=#736CA8;fontColor=default;" edge="1" parent="WIyWlLk6GJQsqaUBKTNV-1" source="_83wY9tQXMiuMrTnx9jU-48" target="_83wY9tQXMiuMrTnx9jU-46">
          <mxGeometry relative="1" as="geometry" />
        </mxCell>
        <mxCell id="_83wY9tQXMiuMrTnx9jU-48" value="tax paid" style="swimlane;fontStyle=0;childLayout=stackLayout;horizontal=1;startSize=30;horizontalStack=0;resizeParent=1;resizeParentMax=0;resizeLast=0;collapsible=1;marginBottom=0;whiteSpace=wrap;html=1;rounded=1;labelBackgroundColor=none;fillColor=#5D7F99;strokeColor=#D0CEE2;fontColor=#1A1A1A;" vertex="1" parent="WIyWlLk6GJQsqaUBKTNV-1">
          <mxGeometry x="353" y="-726" width="140" height="120" as="geometry" />
        </mxCell>
        <mxCell id="_83wY9tQXMiuMrTnx9jU-49" value="&lt;u&gt;idTaxPaid&lt;/u&gt;" style="text;strokeColor=none;fillColor=none;align=left;verticalAlign=middle;spacingLeft=4;spacingRight=4;overflow=hidden;points=[[0,0.5],[1,0.5]];portConstraint=eastwest;rotatable=0;whiteSpace=wrap;html=1;rounded=1;labelBackgroundColor=none;fontColor=#1A1A1A;" vertex="1" parent="_83wY9tQXMiuMrTnx9jU-48">
          <mxGeometry y="30" width="140" height="30" as="geometry" />
        </mxCell>
        <mxCell id="_83wY9tQXMiuMrTnx9jU-50" value="taxAmountPaid" style="text;strokeColor=none;fillColor=none;align=left;verticalAlign=middle;spacingLeft=4;spacingRight=4;overflow=hidden;points=[[0,0.5],[1,0.5]];portConstraint=eastwest;rotatable=0;whiteSpace=wrap;html=1;rounded=1;labelBackgroundColor=none;fontColor=#1A1A1A;" vertex="1" parent="_83wY9tQXMiuMrTnx9jU-48">
          <mxGeometry y="60" width="140" height="30" as="geometry" />
        </mxCell>
        <mxCell id="_83wY9tQXMiuMrTnx9jU-51" value="DateOfPaiment" style="text;strokeColor=none;fillColor=none;align=left;verticalAlign=middle;spacingLeft=4;spacingRight=4;overflow=hidden;points=[[0,0.5],[1,0.5]];portConstraint=eastwest;rotatable=0;whiteSpace=wrap;html=1;rounded=1;labelBackgroundColor=none;fontColor=#1A1A1A;" vertex="1" parent="_83wY9tQXMiuMrTnx9jU-48">
          <mxGeometry y="90" width="140" height="30" as="geometry" />
        </mxCell>
        <mxCell id="_83wY9tQXMiuMrTnx9jU-52" value="owner" style="swimlane;fontStyle=0;childLayout=stackLayout;horizontal=1;startSize=30;horizontalStack=0;resizeParent=1;resizeParentMax=0;resizeLast=0;collapsible=1;marginBottom=0;whiteSpace=wrap;html=1;rounded=1;labelBackgroundColor=none;fillColor=#5D7F99;strokeColor=#D0CEE2;fontColor=#1A1A1A;" vertex="1" parent="WIyWlLk6GJQsqaUBKTNV-1">
          <mxGeometry x="315" y="-308" width="140" height="120" as="geometry" />
        </mxCell>
        <mxCell id="_83wY9tQXMiuMrTnx9jU-53" value="&lt;u&gt;idOwner&lt;/u&gt;" style="text;strokeColor=none;fillColor=none;align=left;verticalAlign=middle;spacingLeft=4;spacingRight=4;overflow=hidden;points=[[0,0.5],[1,0.5]];portConstraint=eastwest;rotatable=0;whiteSpace=wrap;html=1;rounded=1;labelBackgroundColor=none;fontColor=#1A1A1A;" vertex="1" parent="_83wY9tQXMiuMrTnx9jU-52">
          <mxGeometry y="30" width="140" height="30" as="geometry" />
        </mxCell>
        <mxCell id="_83wY9tQXMiuMrTnx9jU-54" value="name" style="text;strokeColor=none;fillColor=none;align=left;verticalAlign=middle;spacingLeft=4;spacingRight=4;overflow=hidden;points=[[0,0.5],[1,0.5]];portConstraint=eastwest;rotatable=0;whiteSpace=wrap;html=1;rounded=1;labelBackgroundColor=none;fontColor=#1A1A1A;" vertex="1" parent="_83wY9tQXMiuMrTnx9jU-52">
          <mxGeometry y="60" width="140" height="30" as="geometry" />
        </mxCell>
        <mxCell id="_83wY9tQXMiuMrTnx9jU-55" value="surname" style="text;strokeColor=none;fillColor=none;align=left;verticalAlign=middle;spacingLeft=4;spacingRight=4;overflow=hidden;points=[[0,0.5],[1,0.5]];portConstraint=eastwest;rotatable=0;whiteSpace=wrap;html=1;rounded=1;labelBackgroundColor=none;fontColor=#1A1A1A;" vertex="1" parent="_83wY9tQXMiuMrTnx9jU-52">
          <mxGeometry y="90" width="140" height="30" as="geometry" />
        </mxCell>
        <mxCell id="_83wY9tQXMiuMrTnx9jU-56" value="vehiculeType" style="swimlane;fontStyle=0;childLayout=stackLayout;horizontal=1;startSize=30;horizontalStack=0;resizeParent=1;resizeParentMax=0;resizeLast=0;collapsible=1;marginBottom=0;whiteSpace=wrap;html=1;rounded=1;labelBackgroundColor=none;fillColor=#5D7F99;strokeColor=#D0CEE2;fontColor=#1A1A1A;" vertex="1" parent="WIyWlLk6GJQsqaUBKTNV-1">
          <mxGeometry x="437" y="-484" width="140" height="120" as="geometry" />
        </mxCell>
        <mxCell id="_83wY9tQXMiuMrTnx9jU-57" value="&lt;u&gt;idVehiculeType&lt;/u&gt;" style="text;strokeColor=none;fillColor=none;align=left;verticalAlign=middle;spacingLeft=4;spacingRight=4;overflow=hidden;points=[[0,0.5],[1,0.5]];portConstraint=eastwest;rotatable=0;whiteSpace=wrap;html=1;rounded=1;labelBackgroundColor=none;fontColor=#1A1A1A;" vertex="1" parent="_83wY9tQXMiuMrTnx9jU-56">
          <mxGeometry y="30" width="140" height="30" as="geometry" />
        </mxCell>
        <mxCell id="_83wY9tQXMiuMrTnx9jU-58" value="typeOfVehicule" style="text;strokeColor=none;fillColor=none;align=left;verticalAlign=middle;spacingLeft=4;spacingRight=4;overflow=hidden;points=[[0,0.5],[1,0.5]];portConstraint=eastwest;rotatable=0;whiteSpace=wrap;html=1;rounded=1;labelBackgroundColor=none;fontColor=#1A1A1A;" vertex="1" parent="_83wY9tQXMiuMrTnx9jU-56">
          <mxGeometry y="60" width="140" height="30" as="geometry" />
        </mxCell>
        <mxCell id="_83wY9tQXMiuMrTnx9jU-59" value="taxAmount" style="text;strokeColor=none;fillColor=none;align=left;verticalAlign=middle;spacingLeft=4;spacingRight=4;overflow=hidden;points=[[0,0.5],[1,0.5]];portConstraint=eastwest;rotatable=0;whiteSpace=wrap;html=1;rounded=1;labelBackgroundColor=none;fontColor=#1A1A1A;" vertex="1" parent="_83wY9tQXMiuMrTnx9jU-56">
          <mxGeometry y="90" width="140" height="30" as="geometry" />
        </mxCell>
        <mxCell id="_83wY9tQXMiuMrTnx9jU-60" style="edgeStyle=orthogonalEdgeStyle;rounded=1;orthogonalLoop=1;jettySize=auto;html=1;entryX=0.997;entryY=0.149;entryDx=0;entryDy=0;entryPerimeter=0;endArrow=none;endFill=0;labelBackgroundColor=none;strokeColor=#736CA8;fontColor=default;" edge="1" parent="WIyWlLk6GJQsqaUBKTNV-1" source="_83wY9tQXMiuMrTnx9jU-56" target="_83wY9tQXMiuMrTnx9jU-43">
          <mxGeometry relative="1" as="geometry" />
        </mxCell>
        <mxCell id="_83wY9tQXMiuMrTnx9jU-61" value="MLD" style="text;html=1;align=center;verticalAlign=middle;whiteSpace=wrap;rounded=1;fillColor=#5D7F99;strokeColor=#D0CEE2;labelBackgroundColor=none;fontColor=#1A1A1A;" vertex="1" parent="WIyWlLk6GJQsqaUBKTNV-1">
          <mxGeometry x="225" y="-616" width="104" height="66" as="geometry" />
        </mxCell>
        <mxCell id="_83wY9tQXMiuMrTnx9jU-62" style="edgeStyle=orthogonalEdgeStyle;rounded=1;orthogonalLoop=1;jettySize=auto;html=1;entryX=-0.012;entryY=-0.19;entryDx=0;entryDy=0;entryPerimeter=0;endArrow=none;endFill=0;labelBackgroundColor=none;strokeColor=#736CA8;fontColor=default;" edge="1" parent="WIyWlLk6GJQsqaUBKTNV-1" source="_83wY9tQXMiuMrTnx9jU-63" target="_83wY9tQXMiuMrTnx9jU-82">
          <mxGeometry relative="1" as="geometry">
            <mxPoint x="356" y="507" as="targetPoint" />
            <Array as="points">
              <mxPoint x="356" y="424" />
              <mxPoint x="357" y="502" />
            </Array>
          </mxGeometry>
        </mxCell>
        <mxCell id="_83wY9tQXMiuMrTnx9jU-63" value="vehicule" style="swimlane;fontStyle=0;childLayout=stackLayout;horizontal=1;startSize=30;horizontalStack=0;resizeParent=1;resizeParentMax=0;resizeLast=0;collapsible=1;marginBottom=0;whiteSpace=wrap;html=1;rounded=1;labelBackgroundColor=none;fillColor=#5D7F99;strokeColor=#D0CEE2;fontColor=#1A1A1A;" vertex="1" parent="WIyWlLk6GJQsqaUBKTNV-1">
          <mxGeometry x="242" width="184" height="338" as="geometry" />
        </mxCell>
        <mxCell id="_83wY9tQXMiuMrTnx9jU-64" value="&lt;u&gt;idvehicule IDENTITY&lt;/u&gt;" style="text;strokeColor=none;fillColor=none;align=left;verticalAlign=middle;spacingLeft=4;spacingRight=4;overflow=hidden;points=[[0,0.5],[1,0.5]];portConstraint=eastwest;rotatable=0;whiteSpace=wrap;html=1;rounded=1;labelBackgroundColor=none;fontColor=#1A1A1A;" vertex="1" parent="_83wY9tQXMiuMrTnx9jU-63">
          <mxGeometry y="30" width="184" height="30" as="geometry" />
        </mxCell>
        <mxCell id="_83wY9tQXMiuMrTnx9jU-65" value="vin varchar(255)" style="text;strokeColor=none;fillColor=none;align=left;verticalAlign=middle;spacingLeft=4;spacingRight=4;overflow=hidden;points=[[0,0.5],[1,0.5]];portConstraint=eastwest;rotatable=0;whiteSpace=wrap;html=1;rounded=1;labelBackgroundColor=none;fontColor=#1A1A1A;" vertex="1" parent="_83wY9tQXMiuMrTnx9jU-63">
          <mxGeometry y="60" width="184" height="30" as="geometry" />
        </mxCell>
        <mxCell id="_83wY9tQXMiuMrTnx9jU-66" value="numberPlate VARCHAR" style="text;strokeColor=none;fillColor=none;align=left;verticalAlign=middle;spacingLeft=4;spacingRight=4;overflow=hidden;points=[[0,0.5],[1,0.5]];portConstraint=eastwest;rotatable=0;whiteSpace=wrap;html=1;rounded=1;labelBackgroundColor=none;fontColor=#1A1A1A;" vertex="1" parent="_83wY9tQXMiuMrTnx9jU-63">
          <mxGeometry y="90" width="184" height="30" as="geometry" />
        </mxCell>
        <mxCell id="_83wY9tQXMiuMrTnx9jU-67" value="make VARCHAR" style="text;strokeColor=none;fillColor=none;align=left;verticalAlign=middle;spacingLeft=4;spacingRight=4;overflow=hidden;points=[[0,0.5],[1,0.5]];portConstraint=eastwest;rotatable=0;whiteSpace=wrap;html=1;rounded=1;labelBackgroundColor=none;fontColor=#1A1A1A;" vertex="1" parent="_83wY9tQXMiuMrTnx9jU-63">
          <mxGeometry y="120" width="184" height="30" as="geometry" />
        </mxCell>
        <mxCell id="_83wY9tQXMiuMrTnx9jU-68" value="model VARCHAR" style="text;strokeColor=none;fillColor=none;align=left;verticalAlign=middle;spacingLeft=4;spacingRight=4;overflow=hidden;points=[[0,0.5],[1,0.5]];portConstraint=eastwest;rotatable=0;whiteSpace=wrap;html=1;rounded=1;labelBackgroundColor=none;fontColor=#1A1A1A;" vertex="1" parent="_83wY9tQXMiuMrTnx9jU-63">
          <mxGeometry y="150" width="184" height="30" as="geometry" />
        </mxCell>
        <mxCell id="_83wY9tQXMiuMrTnx9jU-69" value="color VARCHAR" style="text;strokeColor=none;fillColor=none;align=left;verticalAlign=middle;spacingLeft=4;spacingRight=4;overflow=hidden;points=[[0,0.5],[1,0.5]];portConstraint=eastwest;rotatable=0;whiteSpace=wrap;html=1;rounded=1;labelBackgroundColor=none;fontColor=#1A1A1A;" vertex="1" parent="_83wY9tQXMiuMrTnx9jU-63">
          <mxGeometry y="180" width="184" height="30" as="geometry" />
        </mxCell>
        <mxCell id="_83wY9tQXMiuMrTnx9jU-70" value="year YEAR" style="text;strokeColor=none;fillColor=none;align=left;verticalAlign=middle;spacingLeft=4;spacingRight=4;overflow=hidden;points=[[0,0.5],[1,0.5]];portConstraint=eastwest;rotatable=0;whiteSpace=wrap;html=1;rounded=1;labelBackgroundColor=none;fontColor=#1A1A1A;" vertex="1" parent="_83wY9tQXMiuMrTnx9jU-63">
          <mxGeometry y="210" width="184" height="32" as="geometry" />
        </mxCell>
        <mxCell id="_83wY9tQXMiuMrTnx9jU-71" value="&lt;u&gt;#idOwner int NOT NULL&lt;/u&gt;" style="text;strokeColor=none;fillColor=none;align=left;verticalAlign=middle;spacingLeft=4;spacingRight=4;overflow=hidden;points=[[0,0.5],[1,0.5]];portConstraint=eastwest;rotatable=0;whiteSpace=wrap;html=1;rounded=1;labelBackgroundColor=none;fontColor=#1A1A1A;" vertex="1" parent="_83wY9tQXMiuMrTnx9jU-63">
          <mxGeometry y="242" width="184" height="32" as="geometry" />
        </mxCell>
        <mxCell id="_83wY9tQXMiuMrTnx9jU-72" value="&lt;u&gt;#idVehiculeType INT NOT NULL&lt;/u&gt;" style="text;strokeColor=none;fillColor=none;align=left;verticalAlign=middle;spacingLeft=4;spacingRight=4;overflow=hidden;points=[[0,0.5],[1,0.5]];portConstraint=eastwest;rotatable=0;whiteSpace=wrap;html=1;rounded=1;labelBackgroundColor=none;fontColor=#1A1A1A;" vertex="1" parent="_83wY9tQXMiuMrTnx9jU-63">
          <mxGeometry y="274" width="184" height="32" as="geometry" />
        </mxCell>
        <mxCell id="_83wY9tQXMiuMrTnx9jU-73" value="&lt;u&gt;#idTaxPaid INT NOT NULL&lt;/u&gt;" style="text;strokeColor=none;fillColor=none;align=left;verticalAlign=middle;spacingLeft=4;spacingRight=4;overflow=hidden;points=[[0,0.5],[1,0.5]];portConstraint=eastwest;rotatable=0;whiteSpace=wrap;html=1;rounded=1;labelBackgroundColor=none;fontColor=#1A1A1A;" vertex="1" parent="_83wY9tQXMiuMrTnx9jU-63">
          <mxGeometry y="306" width="184" height="32" as="geometry" />
        </mxCell>
        <mxCell id="_83wY9tQXMiuMrTnx9jU-74" style="edgeStyle=orthogonalEdgeStyle;rounded=1;orthogonalLoop=1;jettySize=auto;html=1;endArrow=none;endFill=0;labelBackgroundColor=none;strokeColor=#736CA8;fontColor=default;" edge="1" parent="WIyWlLk6GJQsqaUBKTNV-1" source="_83wY9tQXMiuMrTnx9jU-75" target="_83wY9tQXMiuMrTnx9jU-73">
          <mxGeometry relative="1" as="geometry" />
        </mxCell>
        <mxCell id="_83wY9tQXMiuMrTnx9jU-75" value="tax paid" style="swimlane;fontStyle=0;childLayout=stackLayout;horizontal=1;startSize=30;horizontalStack=0;resizeParent=1;resizeParentMax=0;resizeLast=0;collapsible=1;marginBottom=0;whiteSpace=wrap;html=1;rounded=1;labelBackgroundColor=none;fillColor=#5D7F99;strokeColor=#D0CEE2;fontColor=#1A1A1A;" vertex="1" parent="WIyWlLk6GJQsqaUBKTNV-1">
          <mxGeometry x="618" width="140" height="120" as="geometry" />
        </mxCell>
        <mxCell id="_83wY9tQXMiuMrTnx9jU-76" value="&lt;u&gt;idTaxPaid IDENTITY&lt;/u&gt;" style="text;strokeColor=none;fillColor=none;align=left;verticalAlign=middle;spacingLeft=4;spacingRight=4;overflow=hidden;points=[[0,0.5],[1,0.5]];portConstraint=eastwest;rotatable=0;whiteSpace=wrap;html=1;rounded=1;labelBackgroundColor=none;fontColor=#1A1A1A;" vertex="1" parent="_83wY9tQXMiuMrTnx9jU-75">
          <mxGeometry y="30" width="140" height="30" as="geometry" />
        </mxCell>
        <mxCell id="_83wY9tQXMiuMrTnx9jU-77" value="taxAmountPaid int&amp;nbsp;" style="text;strokeColor=none;fillColor=none;align=left;verticalAlign=middle;spacingLeft=4;spacingRight=4;overflow=hidden;points=[[0,0.5],[1,0.5]];portConstraint=eastwest;rotatable=0;whiteSpace=wrap;html=1;rounded=1;labelBackgroundColor=none;fontColor=#1A1A1A;" vertex="1" parent="_83wY9tQXMiuMrTnx9jU-75">
          <mxGeometry y="60" width="140" height="30" as="geometry" />
        </mxCell>
        <mxCell id="_83wY9tQXMiuMrTnx9jU-78" value="DateOfPaiment DATE" style="text;strokeColor=none;fillColor=none;align=left;verticalAlign=middle;spacingLeft=4;spacingRight=4;overflow=hidden;points=[[0,0.5],[1,0.5]];portConstraint=eastwest;rotatable=0;whiteSpace=wrap;html=1;rounded=1;labelBackgroundColor=none;fontColor=#1A1A1A;" vertex="1" parent="_83wY9tQXMiuMrTnx9jU-75">
          <mxGeometry y="90" width="140" height="30" as="geometry" />
        </mxCell>
        <mxCell id="_83wY9tQXMiuMrTnx9jU-79" value="owner" style="swimlane;fontStyle=0;childLayout=stackLayout;horizontal=1;startSize=30;horizontalStack=0;resizeParent=1;resizeParentMax=0;resizeLast=0;collapsible=1;marginBottom=0;whiteSpace=wrap;html=1;rounded=1;labelBackgroundColor=none;fillColor=#5D7F99;strokeColor=#D0CEE2;fontColor=#1A1A1A;" vertex="1" parent="WIyWlLk6GJQsqaUBKTNV-1">
          <mxGeometry x="580" y="418" width="140" height="120" as="geometry" />
        </mxCell>
        <mxCell id="_83wY9tQXMiuMrTnx9jU-80" value="&lt;u&gt;idOwner IDENTITY&lt;/u&gt;" style="text;strokeColor=none;fillColor=none;align=left;verticalAlign=middle;spacingLeft=4;spacingRight=4;overflow=hidden;points=[[0,0.5],[1,0.5]];portConstraint=eastwest;rotatable=0;whiteSpace=wrap;html=1;rounded=1;labelBackgroundColor=none;fontColor=#1A1A1A;" vertex="1" parent="_83wY9tQXMiuMrTnx9jU-79">
          <mxGeometry y="30" width="140" height="30" as="geometry" />
        </mxCell>
        <mxCell id="_83wY9tQXMiuMrTnx9jU-81" value="name VARCHAR" style="text;strokeColor=none;fillColor=none;align=left;verticalAlign=middle;spacingLeft=4;spacingRight=4;overflow=hidden;points=[[0,0.5],[1,0.5]];portConstraint=eastwest;rotatable=0;whiteSpace=wrap;html=1;rounded=1;labelBackgroundColor=none;fontColor=#1A1A1A;" vertex="1" parent="_83wY9tQXMiuMrTnx9jU-79">
          <mxGeometry y="60" width="140" height="30" as="geometry" />
        </mxCell>
        <mxCell id="_83wY9tQXMiuMrTnx9jU-82" value="surname VARCHAR" style="text;strokeColor=none;fillColor=none;align=left;verticalAlign=middle;spacingLeft=4;spacingRight=4;overflow=hidden;points=[[0,0.5],[1,0.5]];portConstraint=eastwest;rotatable=0;whiteSpace=wrap;html=1;rounded=1;labelBackgroundColor=none;fontColor=#1A1A1A;" vertex="1" parent="_83wY9tQXMiuMrTnx9jU-79">
          <mxGeometry y="90" width="140" height="30" as="geometry" />
        </mxCell>
        <mxCell id="_83wY9tQXMiuMrTnx9jU-83" value="vehiculeType" style="swimlane;fontStyle=0;childLayout=stackLayout;horizontal=1;startSize=30;horizontalStack=0;resizeParent=1;resizeParentMax=0;resizeLast=0;collapsible=1;marginBottom=0;whiteSpace=wrap;html=1;rounded=1;labelBackgroundColor=none;fillColor=#5D7F99;strokeColor=#D0CEE2;fontColor=#1A1A1A;" vertex="1" parent="WIyWlLk6GJQsqaUBKTNV-1">
          <mxGeometry x="702" y="242" width="156" height="120" as="geometry" />
        </mxCell>
        <mxCell id="_83wY9tQXMiuMrTnx9jU-84" value="&lt;u&gt;idVehiculeType IDENTITY&lt;/u&gt;" style="text;strokeColor=none;fillColor=none;align=left;verticalAlign=middle;spacingLeft=4;spacingRight=4;overflow=hidden;points=[[0,0.5],[1,0.5]];portConstraint=eastwest;rotatable=0;whiteSpace=wrap;html=1;rounded=1;labelBackgroundColor=none;fontColor=#1A1A1A;" vertex="1" parent="_83wY9tQXMiuMrTnx9jU-83">
          <mxGeometry y="30" width="156" height="30" as="geometry" />
        </mxCell>
        <mxCell id="_83wY9tQXMiuMrTnx9jU-85" value="typeOfVehicule VARCHAR" style="text;strokeColor=none;fillColor=none;align=left;verticalAlign=middle;spacingLeft=4;spacingRight=4;overflow=hidden;points=[[0,0.5],[1,0.5]];portConstraint=eastwest;rotatable=0;whiteSpace=wrap;html=1;rounded=1;labelBackgroundColor=none;fontColor=#1A1A1A;" vertex="1" parent="_83wY9tQXMiuMrTnx9jU-83">
          <mxGeometry y="60" width="156" height="30" as="geometry" />
        </mxCell>
        <mxCell id="_83wY9tQXMiuMrTnx9jU-86" value="taxAmount INT" style="text;strokeColor=none;fillColor=none;align=left;verticalAlign=middle;spacingLeft=4;spacingRight=4;overflow=hidden;points=[[0,0.5],[1,0.5]];portConstraint=eastwest;rotatable=0;whiteSpace=wrap;html=1;rounded=1;labelBackgroundColor=none;fontColor=#1A1A1A;" vertex="1" parent="_83wY9tQXMiuMrTnx9jU-83">
          <mxGeometry y="90" width="156" height="30" as="geometry" />
        </mxCell>
        <mxCell id="_83wY9tQXMiuMrTnx9jU-87" style="edgeStyle=orthogonalEdgeStyle;rounded=1;orthogonalLoop=1;jettySize=auto;html=1;entryX=0.997;entryY=0.149;entryDx=0;entryDy=0;entryPerimeter=0;endArrow=none;endFill=0;labelBackgroundColor=none;strokeColor=#736CA8;fontColor=default;" edge="1" parent="WIyWlLk6GJQsqaUBKTNV-1" source="_83wY9tQXMiuMrTnx9jU-83" target="_83wY9tQXMiuMrTnx9jU-70">
          <mxGeometry relative="1" as="geometry" />
        </mxCell>
        <mxCell id="_83wY9tQXMiuMrTnx9jU-88" value="MPD(AZURE)" style="text;html=1;align=center;verticalAlign=middle;whiteSpace=wrap;rounded=1;fillColor=#5D7F99;strokeColor=#D0CEE2;labelBackgroundColor=none;fontColor=#1A1A1A;" vertex="1" parent="WIyWlLk6GJQsqaUBKTNV-1">
          <mxGeometry x="490" y="110" width="104" height="66" as="geometry" />
        </mxCell>
        <mxCell id="_83wY9tQXMiuMrTnx9jU-89" value="&lt;font style=&quot;font-size: 19px;&quot;&gt;vehicule(&lt;u&gt;idvehicule&lt;/u&gt;,vin,numberPlate,make,model,color,year,#idOwner,#idVehiculeType,#idTaxPaid)&lt;/font&gt;" style="text;html=1;align=center;verticalAlign=middle;whiteSpace=wrap;rounded=1;labelBackgroundColor=none;fontColor=#1A1A1A;" vertex="1" parent="WIyWlLk6GJQsqaUBKTNV-1">
          <mxGeometry x="615" y="-748" width="837" height="66" as="geometry" />
        </mxCell>
        <mxCell id="_83wY9tQXMiuMrTnx9jU-90" value="&lt;font style=&quot;font-size: 19px;&quot;&gt;owner(&lt;u&gt;idOwner&lt;/u&gt;,name,surname)&lt;/font&gt;" style="text;html=1;align=center;verticalAlign=middle;whiteSpace=wrap;rounded=1;labelBackgroundColor=none;fontColor=#1A1A1A;" vertex="1" parent="WIyWlLk6GJQsqaUBKTNV-1">
          <mxGeometry x="617" y="-695.5" width="264.5" height="59" as="geometry" />
        </mxCell>
        <mxCell id="_83wY9tQXMiuMrTnx9jU-91" value="&lt;span style=&quot;font-size: 19px;&quot;&gt;vehiculeType(&lt;u&gt;idVehiculeType&lt;/u&gt;,typeOfVehicule,taxAmount)&lt;/span&gt;" style="text;html=1;align=center;verticalAlign=middle;whiteSpace=wrap;rounded=1;labelBackgroundColor=none;fontColor=#1A1A1A;" vertex="1" parent="WIyWlLk6GJQsqaUBKTNV-1">
          <mxGeometry x="615" y="-636.5" width="485" height="12" as="geometry" />
        </mxCell>
        <mxCell id="_83wY9tQXMiuMrTnx9jU-92" value="&lt;span style=&quot;font-size: 19px;&quot;&gt;taxPaid(&lt;u&gt;idTaxPaid&lt;/u&gt;,taxAmountPaid,DateOfPaiment)&lt;/span&gt;" style="text;html=1;align=center;verticalAlign=middle;whiteSpace=wrap;rounded=1;labelBackgroundColor=none;fontColor=#1A1A1A;" vertex="1" parent="WIyWlLk6GJQsqaUBKTNV-1">
          <mxGeometry x="616" y="-596" width="433" height="26" as="geometry" />
        </mxCell>
        <mxCell id="_83wY9tQXMiuMrTnx9jU-94" value="&lt;span style=&quot;font-size: 25px;&quot;&gt;UML&lt;/span&gt;" style="text;html=1;align=center;verticalAlign=middle;whiteSpace=wrap;rounded=0;fontColor=#1A1A1A;" vertex="1" parent="WIyWlLk6GJQsqaUBKTNV-1">
          <mxGeometry x="250" y="638" width="103" height="30" as="geometry" />
        </mxCell>
      </root>
    </mxGraphModel>
  </diagram>
</mxfile>
